<svg xmlns="http://www.w3.org/2000/svg" viewBox="0 -10 100 100">
  <g id="logo_house" fill="#e43c31">
    <path d="M45.295 1.626a.954.954 0 0 0-.953-.953h-4.11a.954.954 0 0 0-.954.953v1.147l6.017 4.683v-5.83zm16.051 0a.953.953 0 0 0-.953-.953h-4.11a.954.954 0 0 0-.953.953v5.831l6.017-4.683V1.626z"></path>
    <path d="M99.326 38.598h-3.478V26.439h3.297c.311 0 .408-.419.128-.556l-8.371-5.109a5.506 5.506 0 0 0-2.412-.556h-2.1v-1.511h4.815a.496.496 0 0 0 .282-.903l-.877-.604L68.873.365a2.301 2.301 0 0 0-2.612 0l-15.982 12.36L34.296.365a2.303 2.303 0 0 0-2.613 0L9.946 17.2l-.877.605a.495.495 0 0 0 .281.903h4.816v1.511h-2.1c-.835 0-1.661.19-2.412.556l-8.372 5.109c-.28.136-.183.556.128.556h3.297v12.159H1.23a.952.952 0 0 0-.952.952v.535c0 .526.433.953.953.953h98.194c.442 0 .854-.427.854-.953v-.536a.953.953 0 0 0-.953-.952zM68.834 14.06l5.573-4.409a.49.49 0 0 1 .669 0l5.572 4.409a.18.18 0 0 1-.123.312h-1.397l-4.387-3.301-4.387 3.301h-1.397a.18.18 0 0 1-.123-.312zm8.613 3.239h-1.933a.457.457 0 0 1-.456-.458v-1.339c0-.253.204-.458.456-.458h1.933c.253 0 .457.205.457.458v1.339a.456.456 0 0 1-.457.458zm.457 1.181v1.339a.457.457 0 0 1-.457.457h-1.933a.457.457 0 0 1-.456-.457V18.48c0-.252.204-.457.456-.457h1.933c.253 0 .457.205.457.457zm-3.967-1.181h-1.933a.459.459 0 0 1-.458-.458v-1.339c0-.253.206-.458.458-.458h1.933c.253 0 .457.205.457.458v1.339a.457.457 0 0 1-.457.458zm.457 1.181v1.339a.457.457 0 0 1-.457.457h-1.933a.458.458 0 0 1-.458-.457V18.48c0-.252.206-.457.458-.457h1.933c.252 0 .457.205.457.457zm-54.486-4.42l5.573-4.409a.489.489 0 0 1 .668 0l5.573 4.409a.18.18 0 0 1-.123.312h-1.397l-4.387-3.301-4.387 3.301h-1.397a.18.18 0 0 1-.123-.312zm8.645 3.239H26.62a.458.458 0 0 1-.457-.458v-1.339c0-.253.204-.458.457-.458h1.933c.252 0 .458.205.458.458v1.339a.459.459 0 0 1-.458.458zm.457 1.181v1.339a.458.458 0 0 1-.458.457H26.62a.458.458 0 0 1-.457-.457V18.48c0-.252.204-.457.457-.457h1.933c.252 0 .457.205.457.457zm-3.968-1.181H23.11a.458.458 0 0 1-.458-.458v-1.339c0-.253.205-.458.458-.458h1.932c.252 0 .458.205.458.458v1.339a.459.459 0 0 1-.458.458zm.457 1.181v1.339a.458.458 0 0 1-.458.457h-1.932a.458.458 0 0 1-.458-.457V18.48c0-.252.205-.457.458-.457h1.932c.253 0 .458.205.458.457zm-2.231 20.118H9.028v-9.614a9.782 9.782 0 0 1 7.576-3.059 9.746 9.746 0 0 1 2.711.514 9.695 9.695 0 0 1 3.953 2.545v9.614zm15.701 0H24.946v-9.614a9.678 9.678 0 0 1 3.953-2.545 9.775 9.775 0 0 1 2.712-.514h-.265a16.47 16.47 0 0 1 1.176 0 9.739 9.739 0 0 1 6.447 2.842v9.831zm.856-18.779a.458.458 0 0 1-.458.457h-1.932a.458.458 0 0 1-.458-.457V18.48c0-.252.205-.457.458-.457h1.932c.252 0 .458.205.458.457v1.339zm0-2.977a.458.458 0 0 1-.458.458h-1.932a.458.458 0 0 1-.458-.458v-1.339c0-.253.205-.458.458-.458h1.932c.252 0 .458.205.458.458v1.339zm.664 2.977V18.48c0-.252.205-.457.457-.457h1.933c.253 0 .458.205.458.457v1.339a.458.458 0 0 1-.458.457h-1.933a.457.457 0 0 1-.457-.457zm0-2.977v-1.339c0-.253.205-.458.457-.458h1.933c.253 0 .458.205.458.458v1.339a.458.458 0 0 1-.458.458h-1.933a.458.458 0 0 1-.457-.458zm5.576 21.756h-5.324v-9.924c.665-.378 1.603-.624 2.662-.632 1.06.008 1.998.253 2.662.632v9.924zm-.139-24.226h-1.397l-4.387-3.301-4.387 3.301h-1.397a.18.18 0 0 1-.123-.312l5.573-4.409a.489.489 0 0 1 .668 0l5.573 4.409a.18.18 0 0 1-.123.312zm6.991 24.226h-5.278v-9.924c.659-.375 1.589-.62 2.639-.631 1.05.011 1.979.255 2.639.631v9.924zm6.898 0h-5.324v-9.924c.664-.378 1.603-.624 2.662-.632 1.06.008 1.998.253 2.662.632v9.924zm.252-18.779a.457.457 0 0 1-.457.457h-1.933a.458.458 0 0 1-.458-.457V18.48c0-.252.206-.457.458-.457h1.933c.253 0 .457.205.457.457v1.339zm0-2.977a.457.457 0 0 1-.457.458h-1.933a.459.459 0 0 1-.458-.458v-1.339c0-.253.206-.458.458-.458h1.933c.253 0 .457.205.457.458v1.339zm-4.039-2.47h-1.397a.18.18 0 0 1-.123-.312l5.573-4.409a.489.489 0 0 1 .668 0l5.573 4.409a.18.18 0 0 1-.124.312h-1.396l-4.387-3.301-4.387 3.301zm7.55 1.131v1.339a.457.457 0 0 1-.457.458h-1.933a.458.458 0 0 1-.457-.458v-1.339c0-.253.205-.458.457-.458h1.933c.253 0 .457.205.457.458zm-2.847 4.316V18.48c0-.252.205-.457.457-.457h1.933c.253 0 .457.205.457.457v1.339a.457.457 0 0 1-.457.457h-1.933a.458.458 0 0 1-.457-.457zm14.88 18.779H61.588v-9.831a9.699 9.699 0 0 1 3.736-2.328 9.768 9.768 0 0 1 2.71-.514c.305-.014.873-.014 1.178 0h-.266c.92.043 1.832.212 2.712.514a9.702 9.702 0 0 1 3.953 2.545v9.614zm15.918 0h-14.24v-9.614a9.682 9.682 0 0 1 3.952-2.545 9.782 9.782 0 0 1 3.623-.514c.92.043 1.832.212 2.712.514a9.702 9.702 0 0 1 3.953 2.545v9.614z"></path>
    <path d="M28.092 29.003h-1.49a.353.353 0 0 0-.353.353v1.032c0 .195.159.353.353.353h1.49a.353.353 0 0 0 .353-.353v-1.032a.353.353 0 0 0-.353-.353zm3.128 0h-1.49a.352.352 0 0 0-.353.353v1.032c0 .195.158.353.353.353h1.49a.353.353 0 0 0 .353-.353v-1.032a.352.352 0 0 0-.353-.353zm3.129 0h-1.491a.352.352 0 0 0-.353.353v1.032c0 .195.158.353.353.353h1.491a.353.353 0 0 0 .352-.353v-1.032a.353.353 0 0 0-.352-.353zm1.637 1.738h1.49a.352.352 0 0 0 .352-.353v-1.032a.351.351 0 0 0-.352-.353h-1.49a.352.352 0 0 0-.353.353v1.032c0 .195.159.353.353.353zm-23.778-1.738h-1.49a.352.352 0 0 0-.353.353v1.032c0 .195.158.353.353.353h1.49a.353.353 0 0 0 .352-.353v-1.032a.353.353 0 0 0-.352-.353zm3.127 0h-1.49a.353.353 0 0 0-.353.353v1.032c0 .195.158.353.353.353h1.49a.353.353 0 0 0 .353-.353v-1.032a.352.352 0 0 0-.353-.353zm3.128 0h-1.49a.352.352 0 0 0-.353.353v1.032c0 .195.158.353.353.353h1.49a.354.354 0 0 0 .353-.353v-1.032a.352.352 0 0 0-.353-.353zm1.639 1.738h1.49a.353.353 0 0 0 .353-.353v-1.032a.352.352 0 0 0-.353-.353h-1.49a.352.352 0 0 0-.353.353v1.032c0 .195.157.353.353.353zm44.435-1.738h-1.489a.354.354 0 0 0-.354.353v1.032c0 .195.159.353.354.353h1.489a.354.354 0 0 0 .354-.353v-1.032a.354.354 0 0 0-.354-.353zm3.128 0h-1.49a.353.353 0 0 0-.352.353v1.032c0 .195.158.353.352.353h1.49a.353.353 0 0 0 .353-.353v-1.032a.352.352 0 0 0-.353-.353zm3.129 0h-1.49a.352.352 0 0 0-.353.353v1.032c0 .195.157.353.353.353h1.49a.354.354 0 0 0 .353-.353v-1.032a.354.354 0 0 0-.353-.353zm1.638 1.738h1.49a.353.353 0 0 0 .353-.353v-1.032a.352.352 0 0 0-.353-.353h-1.49a.354.354 0 0 0-.354.353v1.032c0 .195.159.353.354.353zm8.024-1.738h-1.49a.353.353 0 0 0-.354.353v1.032c0 .195.158.353.354.353h1.49a.353.353 0 0 0 .352-.353v-1.032a.352.352 0 0 0-.352-.353zm3.128 0h-1.49a.353.353 0 0 0-.353.353v1.032c0 .195.158.353.353.353h1.49a.354.354 0 0 0 .353-.353v-1.032a.353.353 0 0 0-.353-.353zm3.128 0h-1.49a.353.353 0 0 0-.353.353v1.032c0 .195.158.353.353.353h1.49a.354.354 0 0 0 .353-.353v-1.032a.354.354 0 0 0-.353-.353zm1.639 1.738h1.489a.354.354 0 0 0 .353-.353v-1.032a.352.352 0 0 0-.353-.353h-1.489a.353.353 0 0 0-.354.353v1.032c0 .195.157.353.354.353z"></path>
  </g>
  
  <text x="50" y="66" font-family="sans-serif" font-weight="bold" font-size="23" fill="#e43c31" text-anchor="middle"><![CDATA[万泰建筑]]></text>
  <text x="50" y="82" font-family="sans-serif" font-weight="bold" font-size="10" fill="#454545" text-anchor="middle"><![CDATA[VANTECH HOMES LTD]]></text>
</svg>
